<?xml version="1.0" standalone="no"?><!DOCTYPE svg PUBLIC "-//W3C//DTD SVG 1.1//EN" "http://www.w3.org/Graphics/SVG/1.1/DTD/svg11.dtd"><svg t="1544975235269" class="icon" style="" viewBox="0 0 1024 1024" version="1.1" xmlns="http://www.w3.org/2000/svg" p-id="1390" xmlns:xlink="http://www.w3.org/1999/xlink" width="64" height="64"><defs><style type="text/css"></style></defs><path d="M135.203083 853.206518a127.995095 127.995095 0 0 1 241.403612 0H980.96874a42.650815 42.650815 0 0 1 0 85.30163H376.606695a127.995095 127.995095 0 0 1-241.403612 0H42.650815a42.650815 42.650815 0 0 1 0-85.30163h92.552268z m0-767.714666a127.995095 127.995095 0 0 1 241.403612 0H980.96874a42.650815 42.650815 0 0 1 0 85.30163H376.606695a127.995095 127.995095 0 0 1-241.403612 0H42.650815a42.650815 42.650815 0 0 1 0-85.30163h92.552268zM42.650815 469.349185h341.206518a42.650815 42.650815 0 0 1 0 85.30163H42.650815a42.650815 42.650815 0 0 1 0-85.30163z m967.619035 1.833985c1.450128 14.501277 4.265081 26.102299 4.265081 39.196099 0 13.051149 0 24.652171-2.814954 39.153448a22.391678 22.391678 0 0 1-14.373324 17.401532l-40.219719 14.501277c-2.900255 5.800511-5.75786 13.0938-8.615464 18.894311l18.638406 37.703321a19.832629 19.832629 0 0 1-1.407477 21.751915c-15.780801 21.751916-34.504509 39.196099-54.593043 55.147504-5.75786 4.350383-14.373325 4.350383-21.538661 1.450127l-37.362114-18.85166c-5.75786 4.350383-11.51572 5.800511-18.681057 8.700767l-14.373325 40.603575a24.780123 24.780123 0 0 1-17.230929 14.501277c-14.373325 1.450128-25.846394 2.942906-38.812241 2.942906-12.880546 0-24.396266-1.492779-38.72694-2.942906a22.306376 22.306376 0 0 1-17.27358-14.501277l-14.330674-40.603575c-5.75786-2.900255-12.923197-5.800511-18.681057-8.700767l-37.362113 18.85166a19.320819 19.320819 0 0 1-21.538662-1.450127c-21.538661-15.951405-38.812241-34.803065-54.593043-55.147504-4.265081-5.800511-4.265081-14.501277-1.450127-21.751915l18.681056-37.703321c-4.265081-5.800511-5.715209-11.643672-8.615464-18.894311l-40.219718-14.501277a24.908076 24.908076 0 0 1-14.373325-17.401532c-1.407477-14.501277-2.857605-27.552426-2.857605-39.153448 0-13.0938 0-24.694822 2.857605-39.196099a22.391678 22.391678 0 0 1 14.373325-17.401532l40.219718-14.501277c2.900255-5.800511 5.75786-13.051149 8.615464-18.894311l-18.681056-37.70332a19.832629 19.832629 0 0 1 1.450127-21.751916c15.780801-21.751916 34.461858-39.196099 54.593043-55.147503 5.75786-4.350383 14.373325-4.350383 21.538662-1.450128l37.362113 18.85166c5.75786-4.350383 11.51572-5.800511 18.681057-8.700766l14.330674-40.603576a24.780123 24.780123 0 0 1 17.27358-14.501277 223.575571 223.575571 0 0 1 76.131704 0c8.615465 1.450128 14.330674 7.250639 17.23093 14.501277l14.373324 40.603576c5.715209 2.900255 12.923197 5.800511 18.638406 8.700766l37.362114-18.85166a19.320819 19.320819 0 0 1 21.538661 1.450128c21.538661 15.951405 38.812241 34.845716 54.593043 55.147503 4.307732 5.800511 4.307732 14.501277 1.450128 21.751916l-18.681057 37.70332c4.307732 5.843162 5.75786 11.643672 8.615465 18.894311l40.219718 14.501277a24.908076 24.908076 0 0 1 14.373325 17.401532z m-41.669846 58.005108c1.450128-7.250639 1.450128-13.008499 1.450127-18.809009 0-5.843162-1.450128-11.643672-1.450127-18.894311l-37.362114-13.051149c-5.715209-2.900255-11.473069-7.250639-12.923197-14.501277a123.857966 123.857966 0 0 0-12.923197-31.90281 24.950727 24.950727 0 0 1 0-20.344438l17.230929-36.253193a246.095201 246.095201 0 0 0-27.296521-27.552426l-35.911986 17.401532a24.268314 24.268314 0 0 1-20.088534 0 121.256266 121.256266 0 0 0-31.604254-13.051149c-7.165337-1.450128-11.51572-5.800511-14.373324-13.0938l-12.923197-37.703321a160.793572 160.793572 0 0 0-37.362114 0l-12.923197 37.703321c-2.857605 5.843162-7.165337 11.643672-14.330674 13.0938-11.51572 2.900255-21.581312 7.250639-31.604253 13.051149a24.268314 24.268314 0 0 1-20.131185 0l-35.911986-17.401532a246.095201 246.095201 0 0 0-27.296521 27.552426l17.230929 36.253193c2.900255 7.250639 2.900255 14.501277 0 20.344438a123.857966 123.857966 0 0 0-12.923197 31.90281c-1.450128 7.250639-5.75786 11.601022-12.923197 14.501277l-37.362114 13.051149c-1.407477 5.800511-1.407477 13.051149-1.407477 18.894311 0 5.800511 1.407477 11.601022 1.407477 18.85166l37.362114 13.051149c5.75786 2.900255 11.51572 7.250639 12.923197 14.501278 2.900255 11.601022 7.207988 21.751916 12.923197 31.902809 2.900255 7.250639 2.900255 14.501277 0 20.344439l-17.230929 36.253192c8.615465 10.150894 17.230929 18.85166 27.296521 27.552427l35.911986-17.401533a24.268314 24.268314 0 0 1 20.131185 0c10.022941 5.800511 20.088534 10.150894 31.561603 13.051149 7.207988 1.450128 11.51572 5.800511 14.373324 13.093801l12.923197 37.70332c12.965848 1.450128 24.438917 1.450128 37.362114 0l12.923197-37.70332c2.900255-5.843162 7.207988-11.643672 14.373324-13.093801 11.51572-2.900255 21.538661-7.250639 31.604254-13.051149a24.268314 24.268314 0 0 1 20.088534 0l35.911986 17.401533a246.095201 246.095201 0 0 0 27.296521-27.552427l-17.230929-36.253192a24.950727 24.950727 0 0 1 0-20.344439c5.75786-10.150894 10.065592-20.301788 12.923197-31.902809 1.450128-7.250639 5.75786-11.601022 12.923197-14.501278l37.362114-13.051149z m-205.448975-118.654566c54.593043 0 99.120494 44.99661 99.120493 100.101462 0 55.147504-44.527451 100.101462-99.120493 100.101462-54.593043 0-99.120494-44.953959-99.120494-100.101462 0-55.104853 44.527451-100.101462 99.120494-100.101462zM767.714666 554.650815a42.650815 42.650815 0 1 0 0-85.30163 42.650815 42.650815 0 0 0 0 85.30163zM255.904889 170.793482a42.650815 42.650815 0 1 0 0-85.30163 42.650815 42.650815 0 0 0 0 85.30163z m0 767.714666a42.650815 42.650815 0 1 0 0-85.30163 42.650815 42.650815 0 0 0 0 85.30163z" fill="#1296db" p-id="1391"></path></svg>